<svg viewBox="0 0 336 336" id="clock" xmlns="http://www.w3.org/2000/svg">
        <!-- Clock Face
          - -   * minute markers
          -->
        <g transform="translate(50%,50%)">
            <!-- Minute -->
            <g transform="rotate(  0)"><rect style="fill: white;" x="0%" y="-50%" width="1" height="24"/></g>  <!--  0 -->
            <g transform="rotate(  6)"><rect style="fill: white;" x="0%" y="-50%" width="1" height="24"/></g>  <!--  1 -->
            <g transform="rotate( 12)"><rect style="fill: white;" x="0%" y="-50%" width="1" height="24"/></g>  <!--  2 -->
            <g transform="rotate( 18)"><rect style="fill: white;" x="0%" y="-50%" width="1" height="24"/></g>  <!--  3 -->
            <g transform="rotate( 24)"><rect style="fill: white;" x="0%" y="-50%" width="1" height="24"/></g>  <!--  4 -->
            <g transform="rotate( 30)"><rect style="fill: white;" x="0%" y="-50%" width="1" height="24"/></g>  <!--  5 -->
            <g transform="rotate( 36)"><rect style="fill: white;" x="0%" y="-50%" width="1" height="24"/></g>  <!--  6 -->
            <g transform="rotate( 42)"><rect style="fill: white;" x="0%" y="-50%" width="1" height="24"/></g>  <!--  7 -->
            <g transform="rotate( 48)"><rect style="fill: white;" x="0%" y="-50%" width="1" height="24"/></g>  <!--  8 -->
            <g transform="rotate( 54)"><rect style="fill: white;" x="0%" y="-50%" width="1" height="24"/></g>  <!--  9 -->
            <g transform="rotate( 60)"><rect style="fill: white;" x="0%" y="-50%" width="1" height="24"/></g>  <!-- 10 -->
            <g transform="rotate( 66)"><rect style="fill: white;" x="0%" y="-50%" width="1" height="24"/></g>  <!-- 11 -->
            <g transform="rotate( 72)"><rect style="fill: white;" x="0%" y="-50%" width="1" height="24"/></g>  <!-- 12 -->
            <g transform="rotate( 78)"><rect style="fill: white;" x="0%" y="-50%" width="1" height="24"/></g>  <!-- 13 -->
            <g transform="rotate( 84)"><rect style="fill: white;" x="0%" y="-50%" width="1" height="24"/></g>  <!-- 14 -->
            <g transform="rotate( 90)"><rect style="fill: white;" x="0%" y="-50%" width="1" height="24"/></g>  <!-- 15 -->
            <g transform="rotate( 96)"><rect style="fill: white;" x="0%" y="-50%" width="1" height="24"/></g>  <!-- 16 -->
            <g transform="rotate(102)"><rect style="fill: white;" x="0%" y="-50%" width="1" height="24"/></g>  <!-- 17 -->
            <g transform="rotate(108)"><rect style="fill: white;" x="0%" y="-50%" width="1" height="24"/></g>  <!-- 18 -->
            <g transform="rotate(114)"><rect style="fill: white;" x="0%" y="-50%" width="1" height="24"/></g>  <!-- 19 -->
            <g transform="rotate(120)"><rect style="fill: white;" x="0%" y="-50%" width="1" height="24"/></g>  <!-- 20 -->
            <g transform="rotate(126)"><rect style="fill: white;" x="0%" y="-50%" width="1" height="24"/></g>  <!-- 21 -->
            <g transform="rotate(132)"><rect style="fill: white;" x="0%" y="-50%" width="1" height="24"/></g>  <!-- 22 -->
            <g transform="rotate(138)"><rect style="fill: white;" x="0%" y="-50%" width="1" height="24"/></g>  <!-- 23 -->
            <g transform="rotate(144)"><rect style="fill: white;" x="0%" y="-50%" width="1" height="24"/></g>  <!-- 24 -->
            <g transform="rotate(150)"><rect style="fill: white;" x="0%" y="-50%" width="1" height="24"/></g>  <!-- 25 -->
            <g transform="rotate(156)"><rect style="fill: white;" x="0%" y="-50%" width="1" height="24"/></g>  <!-- 26 -->
            <g transform="rotate(162)"><rect style="fill: white;" x="0%" y="-50%" width="1" height="24"/></g>  <!-- 27 -->
            <g transform="rotate(168)"><rect style="fill: white;" x="0%" y="-50%" width="1" height="24"/></g>  <!-- 28 -->
            <g transform="rotate(174)"><rect style="fill: white;" x="0%" y="-50%" width="1" height="24"/></g>  <!-- 29 -->
            <g transform="rotate(180)"><rect style="fill: white;" x="0%" y="-50%" width="1" height="24"/></g>  <!-- 30 -->
            <g transform="rotate(186)"><rect style="fill: white;" x="0%" y="-50%" width="1" height="24"/></g>  <!-- 31 -->
            <g transform="rotate(192)"><rect style="fill: white;" x="0%" y="-50%" width="1" height="24"/></g>  <!-- 32 -->
            <g transform="rotate(198)"><rect style="fill: white;" x="0%" y="-50%" width="1" height="24"/></g>  <!-- 33 -->
            <g transform="rotate(204)"><rect style="fill: white;" x="0%" y="-50%" width="1" height="24"/></g>  <!-- 34 -->
            <g transform="rotate(210)"><rect style="fill: white;" x="0%" y="-50%" width="1" height="24"/></g>  <!-- 35 -->
            <g transform="rotate(216)"><rect style="fill: white;" x="0%" y="-50%" width="1" height="24"/></g>  <!-- 36 -->
            <g transform="rotate(222)"><rect style="fill: white;" x="0%" y="-50%" width="1" height="24"/></g>  <!-- 37 -->
            <g transform="rotate(228)"><rect style="fill: white;" x="0%" y="-50%" width="1" height="24"/></g>  <!-- 38 -->
            <g transform="rotate(234)"><rect style="fill: white;" x="0%" y="-50%" width="1" height="24"/></g>  <!-- 39 -->
            <g transform="rotate(240)"><rect style="fill: white;" x="0%" y="-50%" width="1" height="24"/></g>  <!-- 40 -->
            <g transform="rotate(246)"><rect style="fill: white;" x="0%" y="-50%" width="1" height="24"/></g>  <!-- 41 -->
            <g transform="rotate(252)"><rect style="fill: white;" x="0%" y="-50%" width="1" height="24"/></g>  <!-- 42 -->
            <g transform="rotate(258)"><rect style="fill: white;" x="0%" y="-50%" width="1" height="24"/></g>  <!-- 43 -->
            <g transform="rotate(264)"><rect style="fill: white;" x="0%" y="-50%" width="1" height="24"/></g>  <!-- 44 -->
            <g transform="rotate(270)"><rect style="fill: white;" x="0%" y="-50%" width="1" height="24"/></g>  <!-- 45 -->
            <g transform="rotate(276)"><rect style="fill: white;" x="0%" y="-50%" width="1" height="24"/></g>  <!-- 46 -->
            <g transform="rotate(282)"><rect style="fill: white;" x="0%" y="-50%" width="1" height="24"/></g>  <!-- 47 -->
            <g transform="rotate(288)"><rect style="fill: white;" x="0%" y="-50%" width="1" height="24"/></g>  <!-- 48 -->
            <g transform="rotate(294)"><rect style="fill: white;" x="0%" y="-50%" width="1" height="24"/></g>  <!-- 49 -->
            <g transform="rotate(300)"><rect style="fill: white;" x="0%" y="-50%" width="1" height="24"/></g>  <!-- 50 -->
            <g transform="rotate(306)"><rect style="fill: white;" x="0%" y="-50%" width="1" height="24"/></g>  <!-- 51 -->
            <g transform="rotate(312)"><rect style="fill: white;" x="0%" y="-50%" width="1" height="24"/></g>  <!-- 52 -->
            <g transform="rotate(318)"><rect style="fill: white;" x="0%" y="-50%" width="1" height="24"/></g>  <!-- 53 -->
            <g transform="rotate(324)"><rect style="fill: white;" x="0%" y="-50%" width="1" height="24"/></g>  <!-- 54 -->
            <g transform="rotate(330)"><rect style="fill: white;" x="0%" y="-50%" width="1" height="24"/></g>  <!-- 55 -->
            <g transform="rotate(336)"><rect style="fill: white;" x="0%" y="-50%" width="1" height="24"/></g>  <!-- 56 -->
            <g transform="rotate(342)"><rect style="fill: white;" x="0%" y="-50%" width="1" height="24"/></g>  <!-- 57 -->
            <g transform="rotate(348)"><rect style="fill: white;" x="0%" y="-50%" width="1" height="24"/></g>  <!-- 58 -->
            <g transform="rotate(354)"><rect style="fill: white;" x="0%" y="-50%" width="1" height="24"/></g>  <!-- 59 -->

        </g>
</svg>
